<svg xmlns="http://www.w3.org/2000/svg" viewBox="0 0 640 820">
  <rect width="640" height="820" fill="#F7F3EC"/>
  <circle cx="470" cy="210" r="210" fill="#D8D2C8"/>
  <path d="M150 805c22-158 85-238 170-238s148 80 170 238H150Z" fill="#303A42"/>
  <circle cx="320" cy="330" r="128" fill="#C49A7E"/>
  <path d="M200 350c-17-115 48-206 133-206 88 0 140 78 117 206-28-68-60-103-96-104-42-2-91 36-154 104Z" fill="#4D403A"/>
  <path d="M245 606c50 42 100 42 150 0l44 199H201l44-199Z" fill="#D8D2C8"/>
</svg>
