<svg xmlns="http://www.w3.org/2000/svg" viewBox="0 0 640 820">
  <rect width="640" height="820" fill="#EEE8DE"/>
  <circle cx="160" cy="180" r="190" fill="#C7A56A" opacity=".16"/>
  <path d="M150 805c20-156 86-236 170-236s150 80 170 236H150Z" fill="#151716"/>
  <circle cx="320" cy="330" r="132" fill="#C09678"/>
  <path d="M188 334c-8-113 54-191 143-191 76 0 126 58 127 152-36-30-75-45-118-45-52 0-102 28-152 84Z" fill="#5E4C42"/>
  <path d="M225 622c60-44 130-44 190 0l44 183H181l44-183Z" fill="#303A42"/>
</svg>
